<svg width="135" height="135" viewBox="0 0 135 135" fill="none" xmlns="http://www.w3.org/2000/svg">
<path d="M69.1757 109.866C67.3181 67.3182 25.7961 92.6745 24.7701 69.1759C67.3181 67.3182 41.9618 25.7963 65.4604 24.7703C67.3181 67.3182 108.84 41.962 109.866 65.4605C67.3181 67.3182 92.6743 108.84 69.1757 109.866Z" fill="#40051D"/>
<path d="M76.5361 108.897C67.3183 67.3183 30.8302 99.4995 25.7394 76.5361C67.3183 67.3183 35.1371 30.8302 58.1005 25.7393C67.3183 67.3183 103.806 35.137 108.897 58.1004C67.3183 67.3183 99.4996 103.806 76.5361 108.897Z" fill="#62072D"/>
<path d="M83.6161 106.665C67.3182 67.3183 36.9727 105.347 27.9716 83.6162C67.3182 67.3183 29.2898 36.9728 51.0203 27.9717C67.3182 67.3183 97.6638 29.2898 106.665 51.0204C67.3182 67.3183 105.347 97.6638 83.6161 106.665Z" fill="#7B0939"/>
<path d="M90.2013 103.237C67.3185 67.3183 44.0376 110.038 31.3998 90.2011C67.3185 67.3183 24.5984 44.0374 44.4358 31.3996C67.3185 67.3183 90.5994 24.5982 103.237 44.4355C67.3185 67.3183 110.039 90.5992 90.2013 103.237Z" fill="#940C45"/>
<path d="M96.0903 98.7177C67.3179 67.3182 51.8089 113.432 35.9184 96.0906C67.3179 67.3182 21.2041 51.8093 38.5456 35.9187C67.3179 67.3182 82.8269 21.2044 98.7174 38.5459C67.3179 67.3182 113.432 82.8272 96.0903 98.7177Z" fill="#A60E4E"/>
<path d="M101.106 93.2446C67.3183 67.3184 60.0525 115.425 41.3921 101.106C67.3183 67.3184 19.2119 60.0526 33.5306 41.3921C67.3183 67.3184 74.5841 19.212 93.2445 33.5307C67.3183 67.3184 115.425 74.5841 101.106 93.2446Z" fill="#C4115C"/>
<path d="M105.094 86.9834C67.3181 67.3182 68.5162 115.955 47.6529 105.095C67.3181 67.3182 18.6809 68.5164 29.5416 47.6531C67.3181 67.3182 66.1199 18.681 86.9832 29.5418C67.3181 67.3182 115.955 66.1201 105.094 86.9834Z" fill="#D21766"/>
<path d="M107.936 80.1248C67.3183 67.3182 76.944 115.008 54.5117 107.936C67.3183 67.3182 19.6281 76.944 26.701 54.5116C67.3183 67.3182 57.6926 19.628 80.1249 26.7009C67.3183 67.3182 115.009 57.6925 107.936 80.1248Z" fill="#E7186F"/>
<path d="M109.542 72.8769C67.3183 67.318 85.0791 112.612 61.7594 109.542C67.3183 67.318 22.0241 85.0788 25.0942 61.7591C67.3183 67.318 49.5575 22.0238 72.8772 25.0939C67.3183 67.318 112.612 49.5572 109.542 72.8769Z" fill="black"/>
</svg>
